<svg width="18" height="18" viewBox="0 0 18 18" fill="none" xmlns="http://www.w3.org/2000/svg">
<path d="M15.0366 14.6105H12.4981V10.6327C12.4981 9.6841 12.4788 8.46338 11.1752 8.46338C9.85164 8.46338 9.6495 9.49552 9.6495 10.5627V14.6105H7.11093V6.43052H9.5495V7.54552H9.58235C9.92307 6.90267 10.7516 6.2241 11.9895 6.2241C14.5616 6.2241 15.0374 7.91695 15.0374 10.1205L15.0366 14.6105ZM4.24378 5.31124C4.05007 5.31152 3.85821 5.27355 3.67921 5.19951C3.5002 5.12547 3.33758 5.01681 3.20068 4.87976C3.06377 4.74272 2.95526 4.58 2.88139 4.40092C2.80753 4.22185 2.76974 4.02995 2.77021 3.83624C2.77035 3.54465 2.85696 3.25966 3.01907 3.01729C3.18118 2.77492 3.41153 2.58607 3.68097 2.47462C3.95042 2.36316 4.24686 2.33411 4.53282 2.39113C4.81877 2.44816 5.0814 2.5887 5.28748 2.79498C5.49356 3.00126 5.63385 3.26402 5.69059 3.55003C5.74734 3.83605 5.718 4.13246 5.60629 4.4018C5.49457 4.67113 5.3055 4.90129 5.06297 5.06317C4.82045 5.22505 4.53537 5.31138 4.24378 5.31124ZM5.51664 14.6105H2.97093V6.43052H5.51664V14.6105ZM16.3066 0.00195312H1.69664C0.997355 0.00195312 0.431641 0.55481 0.431641 1.23695V15.9098C0.431641 16.5927 0.997355 17.1448 1.69664 17.1448H16.3045C17.0031 17.1448 17.5745 16.5927 17.5745 15.9098V1.23695C17.5745 0.55481 17.0031 0.00195312 16.3045 0.00195312H16.3066Z" fill="white"/>
</svg>
