<svg width="16" height="16" viewBox="0 0 16 16" fill="none" xmlns="http://www.w3.org/2000/svg">
<path d="M7.85703 3.8541C5.64023 3.8541 3.85117 5.64316 3.85117 7.85996C3.85117 10.0768 5.64023 11.8658 7.85703 11.8658C10.0738 11.8658 11.8629 10.0768 11.8629 7.85996C11.8629 5.64316 10.0738 3.8541 7.85703 3.8541ZM7.85703 10.4635C6.42343 10.4635 5.25351 9.29355 5.25351 7.85996C5.25351 6.42636 6.42343 5.25644 7.85703 5.25644C9.29062 5.25644 10.4605 6.42636 10.4605 7.85996C10.4605 9.29355 9.29062 10.4635 7.85703 10.4635ZM12.0269 2.75644C11.5094 2.75644 11.0914 3.17441 11.0914 3.69199C11.0914 4.20957 11.5094 4.62753 12.0269 4.62753C12.5445 4.62753 12.9625 4.21152 12.9625 3.69199C12.9626 3.56909 12.9386 3.44736 12.8916 3.33379C12.8446 3.22021 12.7757 3.11702 12.6888 3.03011C12.6019 2.94321 12.4987 2.8743 12.3851 2.82734C12.2716 2.78038 12.1498 2.75629 12.0269 2.75644ZM15.6656 7.85996C15.6656 6.78183 15.6754 5.71347 15.6148 4.6373C15.5543 3.3873 15.2691 2.27792 14.3551 1.36386C13.4391 0.447846 12.3316 0.164643 11.0816 0.104097C10.0035 0.0435497 8.93515 0.0533153 7.85898 0.0533153C6.78085 0.0533153 5.71249 0.0435497 4.63632 0.104097C3.38632 0.164643 2.27695 0.4498 1.36289 1.36386C0.44687 2.27988 0.163667 3.3873 0.10312 4.6373C0.0425731 5.71543 0.0523388 6.78378 0.0523388 7.85996C0.0523388 8.93613 0.0425731 10.0064 0.10312 11.0826C0.163667 12.3326 0.448823 13.442 1.36289 14.3561C2.2789 15.2721 3.38632 15.5553 4.63632 15.6158C5.71445 15.6764 6.78281 15.6666 7.85898 15.6666C8.9371 15.6666 10.0055 15.6764 11.0816 15.6158C12.3316 15.5553 13.441 15.2701 14.3551 14.3561C15.2711 13.44 15.5543 12.3326 15.6148 11.0826C15.6773 10.0064 15.6656 8.93808 15.6656 7.85996ZM13.9469 12.4654C13.8043 12.8209 13.6324 13.0865 13.357 13.36C13.0816 13.6353 12.818 13.8072 12.4625 13.9498C11.4352 14.358 8.9957 14.2662 7.85703 14.2662C6.71835 14.2662 4.27695 14.358 3.2496 13.9518C2.89414 13.8092 2.62851 13.6373 2.35507 13.3619C2.07968 13.0865 1.90781 12.8228 1.76523 12.4674C1.35898 11.4381 1.45078 8.99863 1.45078 7.85996C1.45078 6.72128 1.35898 4.27988 1.76523 3.25253C1.90781 2.89707 2.07968 2.63144 2.35507 2.358C2.63046 2.08457 2.89414 1.91074 3.2496 1.76816C4.27695 1.36191 6.71835 1.45371 7.85703 1.45371C8.9957 1.45371 11.4371 1.36191 12.4644 1.76816C12.8199 1.91074 13.0855 2.08261 13.359 2.358C13.6344 2.63339 13.8062 2.89707 13.9488 3.25253C14.3551 4.27988 14.2633 6.72128 14.2633 7.85996C14.2633 8.99863 14.3551 11.4381 13.9469 12.4654Z" fill="white"/>
</svg>
